<svg width="124" height="19" viewBox="0 0 124 19" fill="none" xmlns="http://www.w3.org/2000/svg">
<path fill-rule="evenodd" clip-rule="evenodd" d="M2.76914 16.1398C-0.923046 12.4476 -0.923046 6.46132 2.76914 2.76914C6.46132 -0.923046 12.4476 -0.923046 16.1398 2.76914L18.5034 5.13278L20.867 2.76914C24.5592 -0.923046 30.5455 -0.923046 34.2377 2.76914L34.2493 2.78075L29.7924 7.23766L29.7808 7.22602C28.55 5.99528 26.5546 5.99528 25.3239 7.22602L22.8251 9.45446L16.1398 16.1398C12.4476 19.832 6.46132 19.832 2.76914 16.1398ZM13.9113 9.45446L11.6829 11.6829C10.4522 12.9136 8.45673 12.9136 7.22602 11.6829C5.99528 10.4522 5.99528 8.45675 7.22602 7.22602C8.45673 5.99528 10.4522 5.99528 11.6829 7.22602L13.9113 9.45446ZM34.2376 16.1398L34.2492 16.1281L29.7923 11.6713L29.7808 11.6829C28.55 12.9136 26.3589 12.7179 25.1282 11.4872L20.7622 16.035L20.867 16.1398C24.5592 19.832 30.5454 19.832 34.2376 16.1398Z" fill="white"/>
<path fill-rule="evenodd" clip-rule="evenodd" d="M37.8178 0H44.1208V6.30297H50.4238V0H56.7268V6.30297V12.6059V18.9089H50.4238V12.6059H44.1208V18.9089H37.8178V0Z" fill="white"/>
<path fill-rule="evenodd" clip-rule="evenodd" d="M107.807 18.9089L109.067 15.6134H116.198L117.458 18.9089H124L115.796 0H109.576L101.373 18.9089H107.807ZM112.633 6.26695L114.456 11.0212H110.81L112.633 6.26695Z" fill="white"/>
<path fill-rule="evenodd" clip-rule="evenodd" d="M98.775 10.697C98.2209 9.9407 97.4167 9.37343 96.3621 8.99524C97.1307 8.56303 97.7205 8.00478 98.1316 7.32046C98.5605 6.63612 98.775 5.84376 98.775 4.94334C98.775 3.37659 98.1316 2.16102 96.8447 1.29662C95.5757 0.432214 93.7795 0 91.456 0H81.9386V18.9089H91.9654C94.3961 18.9089 96.2728 18.4227 97.5954 17.4502C98.9359 16.4598 99.6061 15.1181 99.6061 13.4253C99.6061 12.3448 99.3291 11.4354 98.775 10.697ZM90.8394 7.26644H88.1585V4.4571H90.8394C91.876 4.4571 92.3943 4.93432 92.3943 5.88877C92.3943 6.80722 91.876 7.26644 90.8394 7.26644ZM93.2254 12.9391C93.2254 13.9476 92.7071 14.4518 91.6705 14.4518H88.1585V11.4804H91.6705C92.7071 11.4804 93.2254 11.9666 93.2254 12.9391Z" fill="white"/>
<path fill-rule="evenodd" clip-rule="evenodd" d="M78.7871 9.45446C78.7871 14.676 74.5542 18.9089 69.3327 18.9089C64.1111 18.9089 59.8782 14.676 59.8782 9.45446C59.8782 4.23291 64.1111 0 69.3327 0C74.5542 0 78.7871 4.23291 78.7871 9.45446ZM72.4842 9.45446C72.4842 11.195 71.0732 12.6059 69.3327 12.6059C67.5922 12.6059 66.1812 11.195 66.1812 9.45446C66.1812 7.71394 67.5922 6.30297 69.3327 6.30297C71.0732 6.30297 72.4842 7.71394 72.4842 9.45446Z" fill="white"/>
</svg>
